<?xml version="1.0" encoding="UTF-8"?>
<!-- Generated by Pixelmator Pro 3.3.5 -->
<svg width="869" height="520" viewBox="0 0 869 520" xmlns="http://www.w3.org/2000/svg">
    <g id="Associer">
        <path id="Trac" fill="#f2f2f2" stroke="none" d="M 645.092407 517.118103 C 633.954102 507.706299 627.188477 492.83844 628.962769 478.364441 C 630.737061 463.890442 641.726379 450.584412 655.981079 447.510803 C 670.23584 444.437134 686.485229 452.945435 690.81488 466.870178 C 693.197632 440.023804 695.94342 412.052612 710.216675 389.19043 C 723.140747 368.489258 745.525452 353.676819 769.785461 351.026855 C 794.045471 348.376953 819.588074 358.385437 834.71814 377.533569 C 849.848267 396.681702 853.552734 424.519043 842.956055 446.502686 C 835.149841 462.697266 820.768066 474.749451 805.699463 484.554504 C 757.007568 515.971313 698.60791 528.747253 641.245728 520.531616 Z"/>
        <path id="path1" fill="#ffffff" stroke="none" d="M 814.727905 362.940247 C 794.710388 379.244751 776.346436 397.480103 759.901672 417.382568 C 734.165649 448.423096 713.339783 483.225281 698.149658 520.576538 C 697.037659 523.301392 701.462402 524.487549 702.561951 521.792969 C 727.41571 461.089355 767.092468 407.585815 817.96344 366.175781 C 820.247803 364.315674 816.993408 361.095459 814.727905 362.940247 Z"/>
        <path id="path2" fill="#f2f2f2" stroke="none" d="M 316.067078 514.560852 C 331.365601 501.633728 340.658081 481.212708 338.221161 461.332703 C 335.784241 441.452698 320.690369 423.176819 301.111511 418.9552 C 281.532654 414.733582 259.21405 426.419678 253.267303 445.545349 C 249.994537 408.671875 246.223236 370.253418 226.618927 338.852173 C 208.867706 310.419189 178.122284 290.074188 144.801178 286.434509 C 111.480057 282.79483 76.397217 296.541504 55.616058 322.841492 C 34.8349 349.141479 29.746719 387.376099 44.3013 417.570557 C 55.023148 439.813843 74.776581 456.367493 95.473251 469.834778 C 161.502777 512.80011 243.412384 530.719238 321.350555 519.249329"/>
        <path id="path3" fill="#ffffff" stroke="none" d="M 84.566727 301.303528 C 112.06076 323.697784 137.283661 348.74408 159.870544 376.080017 C 182.461029 403.387939 202.349518 432.822693 219.256622 463.970703 C 228.706909 481.443359 237.19635 499.418884 244.687042 517.817017 C 246.214294 521.55957 240.137024 523.188721 238.626709 519.487793 C 225.358917 487.051941 208.944122 455.994507 189.617706 426.760803 C 170.385223 397.632996 148.372559 370.439514 123.888977 345.562378 C 110.04097 331.498657 95.430161 318.207001 80.122711 305.747559 C 76.985123 303.192657 81.455032 298.769684 84.566711 301.303558 Z"/>
        <path id="path4" fill="#f2f2f2" stroke="none" d="M 641.5 518.86145 L 276.499969 518.86145 L 276.499969 144.36145 C 276.499969 64.683746 341.322235 -0.13855 420.999725 -0.13855 L 497.000214 -0.13855 C 576.677734 -0.13855 641.5 64.683746 641.5 144.36145 Z"/>
        <path id="path5" fill="#cccccc" stroke="none" d="M 565.5 518.86145 L 276.499969 518.86145 L 276.499969 144.36145 C 276.420197 113.83078 286.087982 84.071716 304.095673 59.417114 C 304.759491 58.512329 305.4216 57.619263 306.104462 56.735962 C 314.814667 45.312042 325.180084 35.25116 336.858612 26.885406 C 337.51828 26.405396 338.180603 25.933746 338.852753 25.462067 C 348.624969 18.699463 359.195892 13.171204 370.324921 9.003052 C 370.985809 8.752563 371.658661 8.501587 372.331512 8.260864 C 382.396698 4.668945 392.830353 2.208496 403.439911 0.924927 C 404.097626 0.835083 404.772919 0.764771 405.448212 0.694458 C 415.787262 -0.411011 426.21463 -0.411011 436.55368 0.694458 C 437.22702 0.764771 437.902313 0.835083 438.567841 0.925903 C 449.174652 2.209534 459.605621 4.669678 469.668182 8.260895 C 470.341278 8.501648 471.014191 8.752594 471.676971 9.003571 C 482.668671 13.119141 493.115204 18.564941 502.783417 25.219391 C 503.455048 25.680847 504.127411 26.152527 504.789764 26.624176 C 511.335907 31.296936 517.48468 36.502655 523.17334 42.188171 C 527.735229 46.748596 531.986206 51.609772 535.897705 56.738953 C 536.578369 57.619324 537.240479 58.51239 537.903076 59.41571 C 555.911499 84.070587 565.579712 113.8302 565.5 144.36145 Z"/>
        <path id="path6" fill="#588157" stroke="none" d="M 557.999939 335.36145 C 557.999939 344.197998 550.836487 351.36145 541.999939 351.36145 C 533.163391 351.36145 525.999939 344.197998 525.999939 335.36145 C 525.999939 326.524902 533.163391 319.36145 541.999939 319.36145 C 550.836487 319.36145 557.999939 326.524902 557.999939 335.36145 Z"/>
        <path id="path7" fill="#ffb8b8" stroke="none" d="M 611.598999 507.64444 L 599.338989 507.64444 L 593.505981 460.356445 L 611.601013 460.357452 L 611.598999 507.64444 Z"/>
        <path id="path8" fill="#2f2e41" stroke="none" d="M 590.581665 504.141266 L 614.225464 504.141266 L 614.225464 504.141266 L 614.225464 519.028137 L 614.225464 519.028137 L 575.694763 519.028137 L 575.694763 519.028137 L 575.694763 519.028137 C 575.694763 510.806335 582.359863 504.141266 590.581665 504.141266 Z"/>
        <path id="path9" fill="#ffb8b8" stroke="none" d="M 672.598999 507.64444 L 660.338989 507.64444 L 654.505981 460.356445 L 672.601013 460.357452 L 672.598999 507.64444 Z"/>
        <path id="path10" fill="#2f2e41" stroke="none" d="M 651.581665 504.141266 L 675.225464 504.141266 L 675.225464 504.141266 L 675.225464 519.028137 L 675.225464 519.028137 L 636.694763 519.028137 L 636.694763 519.028137 L 636.694763 519.028137 C 636.694763 510.806335 643.359863 504.141266 651.581665 504.141266 Z"/>
        <path id="path11" fill="#ffb8b8" stroke="none" d="M 550.097595 338.531067 C 548.312134 335.900513 547.783569 332.614258 548.654114 329.556519 C 549.524658 326.498779 551.704895 323.983704 554.608093 322.687988 L 596.283875 207.82135 L 616.791016 219.012726 L 569.206238 328.783447 C 571.101257 333.917664 568.856628 339.657837 563.981506 342.144714 C 559.106384 344.631592 553.141663 343.079163 550.097595 338.531067 Z"/>
        <path id="path12" fill="#ffb8b8" stroke="none" d="M 666.336426 360.115051 C 663.578369 358.533691 661.662354 355.811951 661.104004 352.682129 C 660.545654 349.552307 661.402283 346.335938 663.44342 343.898438 L 650.532654 222.389038 L 673.870361 223.455231 L 679.236084 342.975708 C 683.19043 346.759155 683.690063 352.902283 680.398987 357.275024 C 677.107971 361.647705 671.066528 362.867798 666.336426 360.115051 Z"/>
        <path id="path13" fill="#ffb8b8" stroke="none" d="M 653.666809 161.984009 C 653.666809 175.548676 642.670471 186.545013 629.105774 186.545013 C 615.541138 186.545013 604.5448 175.548676 604.5448 161.984009 C 604.5448 148.419312 615.541138 137.422974 629.105774 137.422974 C 642.670471 137.422974 653.666809 148.419312 653.666809 161.984009 Z"/>
        <path id="path14" fill="#588157" stroke="none" d="M 666.179565 332.480103 L 592.13269 332.480103 L 592.221802 331.903931 C 592.354858 331.042603 605.418579 245.464935 595.783569 217.467926 C 593.78125 211.769989 596.399292 205.47934 601.852905 202.88443 L 601.853149 202.88443 C 615.624878 196.399078 642.060669 188.413239 664.373169 207.79361 C 671.030029 213.670807 674.534058 222.337311 673.832642 231.189606 Z"/>
        <path id="path15" fill="#588157" stroke="none" d="M 606.35437 258.111938 L 573.0177 251.348724 L 588.643921 214.318939 C 590.591003 206.851349 598.214844 202.36853 605.687134 204.297546 C 613.159424 206.226593 617.660645 213.839569 615.749634 221.316498 Z"/>
        <path id="path16" fill="#588157" stroke="none" d="M 649.050415 270.669556 L 647.046265 224.728149 C 645.526489 216.091919 650.470337 207.927856 658.073608 206.593384 C 665.679077 205.263794 673.105347 211.25354 674.631958 219.953247 L 682.164978 262.880981 Z"/>
        <path id="path17" fill="#2f2e41" stroke="none" d="M 663.716064 326.980042 C 675.630615 372.35675 676.93042 430.049438 673.716064 492.980042 L 657.716064 490.980042 L 628.716064 370.980042 L 612.716064 492.980042 L 594.716064 491.980042 C 589.338623 425.950317 584.102783 369.264771 592.716064 331.980042 Z"/>
        <path id="path18" fill="#2f2e41" stroke="none" d="M 645.289124 180.965454 C 640.707092 185.846252 632.197815 183.226135 631.600769 176.558289 C 631.553955 176.040619 631.557312 175.519623 631.610901 175.002594 C 631.919128 172.049042 633.625488 169.367554 633.216736 166.248993 C 633.124268 165.47287 632.835083 164.733185 632.376648 164.100098 C 628.725403 159.210754 620.154358 166.286957 616.708435 161.860809 C 614.595459 159.14679 617.079224 154.873657 615.457825 151.840271 C 613.317749 147.8367 606.979004 149.811676 603.003906 147.61911 C 598.581177 145.179657 598.845703 138.39389 601.75708 134.266449 C 605.307556 129.232849 611.532776 126.546936 617.68042 126.159821 C 623.828064 125.772736 629.93335 127.43457 635.672729 129.671265 C 642.193787 132.212616 648.6604 135.724792 652.673401 141.458801 C 657.553589 148.431976 658.023254 157.806732 655.58252 165.960541 C 654.097839 170.920593 649.030762 176.979797 645.289124 180.965454 Z"/>
        <path id="path19" fill="#ffffff" stroke="none" d="M 485.999969 411.361481 L 355.999969 411.361481 C 352.435211 411.374664 349.527527 409.401245 349.499969 406.949951 L 349.499969 207.411621 C 349.527527 204.960327 352.435211 202.986877 355.999969 203.000061 L 485.999969 203.000061 C 489.564728 202.986877 492.472382 204.960327 492.499969 207.411621 L 492.499969 406.949951 C 492.472382 409.401245 489.564728 411.374664 485.999969 411.361481 Z"/>
        <path id="path20" fill="#cccccc" stroke="none" d="M 349.499939 201.251099 L 492.499939 201.251099 L 492.499939 203.251099 L 349.499939 203.251099 Z"/>
        <path id="path21" fill="#cccccc" stroke="none" d="M 349.999939 315.36145 L 492.999939 315.36145 L 492.999939 317.36145 L 349.999939 317.36145 Z"/>
        <path id="path22" fill="#cccccc" stroke="none" d="M 394.499939 107.36145 L 396.499939 107.36145 L 396.499939 411.36145 L 394.499939 411.36145 Z"/>
        <path id="path23" fill="#cccccc" stroke="none" d="M 444.499939 107.36145 L 446.499939 107.36145 L 446.499939 411.36145 L 444.499939 411.36145 Z"/>
        <path id="Logo-Feuille" fill="#588157" fill-rule="evenodd" stroke="none" d="M 430.286011 95.751251 C 395.206726 102.023895 386.422638 114.180298 379.846619 153.612396 C 379.764282 154.106079 379.091888 154.140533 379.021851 153.64444 C 377.185974 140.626862 375.62616 130.716553 378.92514 120.40271 C 389.812317 86.366028 433.886993 81.290192 463.351685 92.06192 C 464.820221 92.59903 465.541565 94.057281 464.526581 95.248169 C 453.623779 108.040497 443.082001 132.071686 429.446777 140.358643 C 420.481262 145.807526 410.421326 147.017212 389.163757 140.358643 C 393.284454 125.298737 403.594849 107.493652 430.286011 95.751251 Z"/>
    </g>
</svg>
