<svg width="120" height="120" viewBox="0 0 120 120" fill="none" xmlns="http://www.w3.org/2000/svg">
<rect width="120" height="120" rx="60" fill="#588157" fill-opacity="0.1"/>
<path d="M61.0736 78.3345C71.8306 78.3345 80.5509 69.6143 80.5509 58.8573C80.5509 48.1004 71.8306 39.3801 61.0736 39.3801C50.3167 39.3801 41.5964 48.1004 41.5964 58.8573C41.5964 69.6143 50.3167 78.3345 61.0736 78.3345Z" fill="#FFB6B6"/>
<path d="M49.8924 81.2148L49.0125 72.32L66.5842 69.0343L76.9601 94.2975L58.915 115.049L46.0579 89.7862L49.8924 81.2148Z" fill="#FFB6B6"/>
<path d="M48.7302 76.7724L52.5718 77.6404C52.5718 77.6404 49.5519 68.0641 50.5769 67.1499C51.602 66.2357 54.1138 67.6762 54.1138 67.6762L56.7534 70.6356L59.9685 67.3621C59.9685 67.3621 63.4591 63.0218 64.8258 61.8028C66.1925 60.5838 63.9973 56.0591 63.9973 56.0591C63.9973 56.0591 84.2736 50.5916 76.7288 40.7569C76.7288 40.7569 72.3053 33.0461 70.8647 35.558C69.4242 38.0698 67.7065 34.0805 67.7065 34.0805L62.4612 35.0779C62.4612 35.0779 52.1091 28.9741 42.2838 42.032C32.4585 55.0899 48.7302 76.7724 48.7302 76.7724H48.7302V76.7724Z" fill="#2F2E41"/>
<path d="M97.7052 106.68C87.0609 115.311 73.8925 120 60 120C47.3143 120 35.2308 116.089 25.1233 108.839C25.1413 108.65 25.1594 108.462 25.1752 108.275C25.4436 105.343 25.6827 102.492 25.8406 100.128C26.4519 90.9496 47.8646 84.8324 47.8646 84.8324C47.8646 84.8324 47.9616 84.9293 48.1556 85.0985C49.3376 86.1361 54.1353 89.8985 62.5489 90.9496C70.0511 91.888 72.521 87.4376 73.2676 85.306C73.4932 84.6564 73.5609 84.2211 73.5609 84.2211L95.5849 94.6218C97.0218 96.6745 97.5834 101.096 97.694 106.065C97.6985 106.27 97.703 106.473 97.7052 106.68Z" fill="#588157"/>
</svg>
